<svg width="100" height="100" viewBox="0 0 100 100" fill="none" xmlns="http://www.w3.org/2000/svg">
  <defs>
    <linearGradient id="dbGrad" x1="20" y1="20" x2="80" y2="80" gradientUnits="userSpaceOnUse">
      <stop offset="0%" stop-color="#6E3AFF"/>
      <stop offset="100%" stop-color="#4527A0"/>
    </linearGradient>
    <linearGradient id="boltGrad" x1="50" y1="40" x2="50" y2="80" gradientUnits="userSpaceOnUse">
      <stop offset="0%" stop-color="#FFEB3B"/>
      <stop offset="100%" stop-color="#F9A825"/>
    </linearGradient>
  </defs>
  <path d="M20 65 C20 72 33.4 78 50 78 C66.6 78 80 72 80 65 V55 C80 62 66.6 68 50 68 C33.4 68 20 62 20 55 V65Z" fill="url(#dbGrad)" opacity="0.6"/>
  <path d="M20 48 C20 55 33.4 61 50 61 C66.6 61 80 55 80 48 V38 C80 45 66.6 51 50 51 C33.4 51 20 45 20 38 V48Z" fill="url(#dbGrad)" opacity="0.8"/>
  <ellipse cx="50" cy="30" rx="30" ry="12" fill="#9575CD"/>
  <path d="M20 30 V35 C20 42 33.4 48 50 48 C66.6 48 80 42 80 35 V30 C80 37 66.6 43 50 43 C33.4 43 20 37 20 30Z" fill="url(#dbGrad)"/>
  <path d="M52 35 L38 58 H50 L46 75 L62 52 H50 L54 35 Z" fill="url(#boltGrad)" stroke="#FFF" stroke-width="1.5" stroke-linejoin="round"/>
</svg>